<?xml version="1.0" encoding="utf-8"?>
<!-- Generator: Adobe Illustrator 23.0.2, SVG Export Plug-In . SVG Version: 6.00 Build 0)  -->
<svg version="1.1" id="Camada_1" xmlns="http://www.w3.org/2000/svg" xmlns:xlink="http://www.w3.org/1999/xlink" x="0px" y="0px"
	 viewBox="0 0 1350 1080" style="enable-background:new 0 0 1350 1080;" xml:space="preserve">
<style type="text/css">
	.st0{fill:#5A473A;}
	.st1{fill:#7FB23F;}
</style>
<path class="st0" d="M839.83,616.12c-0.46-3.44-0.89-5.73-1.06-8.03c-1.18-16.65-1.28-33.31,0.05-49.94
	c0.89-11.2,2.58-22.32,4.95-33.31c5.43-25.14,7.75-50.53,6.33-76.21c-0.49-8.89-1.6-17.74-2.58-26.6c-0.36-3.28-1.57-6.38-3.15-9.31
	c-4.28-7.93-13.35-12.42-23.32-8.35c-3.09,1.26-5.89,3-8.2,5.39c-11.04,11.42-22.19,22.75-32.32,35.02
	c-15.07,18.26-28.73,37.53-41.13,57.69c-1.1,1.78-2.26,3.52-3.57,5.54c-1.05-0.9-1.84-1.43-2.43-2.12
	c-7.73-9.12-9.8-19.53-6.9-31.01c1.35-5.34,3.95-10.06,7.39-14.35c6.67-8.31,13.34-16.62,19.9-25.03c1.65-2.11,3.02-4.49,4.19-6.91
	c0.9-1.86-0.57-3.4-2.71-3.13c-3,0.38-5.5,1.84-7.72,3.76c-2.49,2.15-4.89,4.41-7.32,6.64c-21.16,19.35-42.32,38.71-63.48,58.07
	c-1.29,1.18-2.51,2.43-3.88,3.51c-4.16,3.28-8.79,3.99-13.63,1.87c-4.75-2.09-6.77-6.13-7.11-11.13
	c-0.38-5.61,1.67-10.11,5.87-13.88c11.4-10.22,22.68-20.56,34.01-30.86c7.31-6.65,14.62-13.3,21.93-19.95
	c2.32-2.11,4.37-4.39,5.39-7.44c0.7-2.11-0.64-3.99-2.88-3.82c-2.76,0.22-5.27,1.26-7.47,2.92c-1.54,1.17-2.98,2.48-4.44,3.75
	c-14.73,12.89-29.45,25.79-44.18,38.68c-1.46,1.27-2.86,2.65-4.48,3.69c-6.71,4.31-15.2,0.36-16.28-7.53
	c-0.74-5.4,0.86-9.8,5.11-13.43c11.06-9.42,21.98-19.01,32.96-28.54c4.98-4.32,10.03-8.55,14.88-13.01c2.12-1.94,3.9-4.28,5.65-6.57
	c0.8-1.05,1.33-2.37,1.74-3.65c0.92-2.86-0.7-4.5-3.68-3.86c-3.51,0.76-6.4,2.63-9.11,4.91c-8.75,7.36-17.53,14.69-26.29,22.02
	c-5.35,4.48-10.72,8.93-16.04,13.44c-2.62,2.22-5.52,3.49-9.02,3.34c-4.49-0.19-7.8-2.66-8.8-7.03c-1.19-5.23-0.25-10.03,3.62-13.98
	c1.08-1.1,2.29-2.08,3.46-3.1c13.15-11.45,26.33-22.88,39.44-34.38c2.17-1.91,4.17-4.04,6.04-6.25c1.11-1.31,1.93-2.9,2.65-4.48
	c1.05-2.29-0.22-3.9-2.69-3.53c-3.54,0.53-6.58,2.24-9.41,4.31c-1.72,1.26-3.29,2.7-4.92,4.08c-11.83,10.02-23.65,20.05-35.49,30.05
	c-1.48,1.25-2.93,2.58-4.59,3.55c-5.93,3.46-14.07,1.92-15.57-7.57c-0.81-5.08,0.74-9.46,4.38-13.26
	c11.26-11.75,22.24-23.77,33.6-35.42c17.04-17.48,34.12-34.94,51.52-52.05c23.65-23.26,48.72-44.9,75.53-64.49
	c14.81-10.82,31.19-17.77,49.2-21.11c14.23-2.64,28.46-2.8,42.79-1.08c18.48,2.22,35.88,7.74,52.34,16.39
	c13.88,7.29,26.06,16.79,36.5,28.42c6.46,7.2,12.8,14.58,18.56,22.34c17.67,23.82,34.23,48.4,48.71,74.32
	c23.12,41.41,39.16,85.46,49.14,131.77c4.29,19.9,7.37,40,9.15,60.27c1.89,21.44,2.48,42.92,1.72,64.45
	c-0.51,14.35-1.47,28.63-3.78,42.8c-3.56,21.87-9,43.19-18.11,63.49c-9.53,21.23-20.65,41.64-32.17,61.83
	c-13.55,23.73-27.94,46.94-43.02,69.73c-6.75,10.2-14.57,19.58-22.1,29.18c-25,31.87-54.13,59.65-84.97,85.72
	c-3.25,2.74-6.72,5.26-10.27,7.59c-9.92,6.48-20.63,7.35-31.72,3.72c-8.63-2.82-16.04-7.6-21.98-14.59
	c-8.69-10.24-14.99-21.69-17.2-35.03c-0.85-5.12-1.05-10.42-0.98-15.62c0.13-8.91,0.79-17.8,1.09-26.71
	c0.2-5.81,0.17-11.62,0.22-17.43c0.2-24.41,0.25-48.83,0.67-73.24c0.15-8.7,0.37-17.41,1.7-26.07
	c2.54-16.63,10.55-30.17,22.77-41.41c1.25-1.15,2.84-2.02,4.4-2.75c14.33-6.69,29.33-11,45.09-12.51
	c7.41-0.71,14.43-2.85,21.26-5.61c29.85-12.05,52.47-32.03,65.47-61.76c15.01-34.33,12.6-67.89-6.15-100.29
	c-1.55-2.68-3.19-5.33-5-7.84c-3.96-5.52-9.06-9.41-15.84-11c-4.97-1.17-9.64-0.44-14.16,1.56c-5.27,2.34-9.26,6.12-12.39,11.02
	c-16.67,26.16-34.64,51.41-53.67,75.91c-2.85,3.67-5.74,7.31-8.64,10.95C842.38,613.28,841.47,614.25,839.83,616.12z"/>
<path class="st1" d="M733.09,720.41c-1.32,2.25-1,4.23-0.88,6.13c0.6,9.27,1.29,18.54,1.94,27.81c0.04,0.58,0.13,1.16,0.16,1.74
	c0.47,9.09,0.85,18.18,1.42,27.26c0.56,8.89,1.31,17.76,1.97,26.64c0.04,0.58,0.08,1.16,0.11,1.74c0.47,9.28,0.86,18.57,1.43,27.84
	c0.55,8.89,1.58,17.75,1.88,26.64c0.47,13.74,2.26,27.41,1.63,41.2c-0.73,15.98-5.05,30.92-12.85,44.8
	c-8.54,15.2-20.44,27.16-35.61,35.85c-2.73,1.56-5.57,2.31-8.72,2.78c-10.81,1.61-21.67,1.39-32.47,0.78
	c-10.21-0.58-20.33-2.42-30.26-5.1c-25.88-6.98-48.77-19.5-69.14-36.84c-6.49-5.52-13.25-10.73-19.77-16.23
	c-17.21-14.51-33.25-30.25-48.37-46.91c-19.06-20.99-36.25-43.42-51.7-67.19c-17.36-26.71-32.19-54.75-44.77-84.01
	c-13.26-30.86-23.51-62.7-31.24-95.36c-3.97-16.77-7.04-33.71-9.53-50.75c-0.28-1.91-0.25-3.87-0.25-5.8
	c0-11.43-0.22-22.87,0.13-34.3c0.28-8.89,1.33-17.75,1.96-26.63c0.82-11.6,2.75-23.04,4.7-34.49c3.29-19.31,8.1-38.23,14.02-56.89
	c8.11-25.56,18.69-50.07,31.47-73.63c15.39-28.39,33.86-54.65,55.1-78.97c27.81-31.85,59.32-59.53,94.26-83.31
	c17.16-11.68,34.97-22.28,53.54-31.55c20.74-10.36,42.55-17.56,65.5-21.2c6.89-1.09,13.79-1.99,20.76-2.27
	c2.13-0.08,4.25-0.27,6.38-0.44c24.62-1.92,45.78,5.65,63.3,23.13c0.92,0.91,1.61,2.05,2.51,3.22c-0.75,0.49-1.18,0.97-1.68,1.05
	c-25.77,4.24-49.57,13.51-71.4,27.88c-23.67,15.58-42.96,35.44-58.3,59.19c-8.5,13.15-14.24,27.46-17.91,42.64
	c-2.69,11.1-4.69,22.32-6.11,33.67c-1.55,12.3-2.66,24.61-3.5,36.98c-0.71,10.46-0.84,20.9-1.03,31.35
	c-0.15,8.13-0.61,16.26-0.53,24.39c0.13,13.75,0.39,27.51,0.94,41.25c0.5,12.57,1.28,25.14,2.23,37.69
	c0.8,10.61,1.96,21.19,3.07,31.77c1.12,10.58,2.38,21.15,3.55,31.72c0.05,0.47-0.25,0.97-0.56,2.04c-1.15-1.65-2.07-2.84-2.85-4.11
	c-8.28-13.36-13.45-27.8-15.53-43.41c-1.43-10.75-2.52-21.52-3.45-32.31c-0.84-9.64-2.06-19.24-3.07-28.86
	c-1.27-12.13-2.37-24.27-3.75-36.38c-1.61-14.17-6.46-27.05-15.9-37.99c-8.78-10.17-19.82-16.06-33.22-16.97
	c-7.43-0.51-14.57,1.41-21.5,4.09c-4.62,1.79-8.39,4.57-11.66,8.33c-20.29,23.36-33.2,50.27-39.22,80.55
	c-3.08,15.51-3.44,31.21-2.38,46.88c0.98,14.51,4,28.73,8.51,42.6c1.75,5.39,4.33,10.36,7.05,15.27
	c11.86,21.46,25.93,41.35,42.67,59.3c3.96,4.25,7.85,8.57,11.85,12.79c4.95,5.21,10.2,10.1,16.11,14.2
	c9.27,6.43,19.42,9.4,30.78,7.61c2.48-0.39,5.02-0.3,7.53-0.52c11.21-0.99,20.53,3.18,28.41,10.75c3.19,3.07,5.98,6.6,8.6,10.18
	c1.45,1.98,2.46,4.41,3.18,6.78c8.9,29.47,16.84,59.2,23.52,89.26c3.82,17.19,7.59,34.39,11.58,51.54
	c2.33,9.99,5.04,19.92,9.37,29.26c1.86,4.01,4.14,7.93,6.84,11.42c7.14,9.25,18.68,12.33,30.34,8.83c2.4-0.72,3.94-2.27,5.33-4.21
	c6.64-9.24,11.32-19.41,13.97-30.44c2.91-12.11,4.13-24.37,2.73-36.87c-0.67-5.95-0.2-12.01-0.57-18
	c-1.24-20.13-0.44-40.3-1.34-60.42c-0.82-18.41-0.42-36.8-0.75-55.2c-0.02-1.36-0.06-2.71-0.19-4.06c-0.2-2.19-1.29-3.59-3.63-3.79
	c-0.57-0.05-1.14-0.2-1.71-0.34c-16.96-4.27-28.01-14.99-34.13-31.15c-2.42-6.39-3.78-13.02-4.37-19.78
	c-0.49-5.6,0.37-6.22,5.71-5.32c21.04,3.55,33.42,16.55,39.67,36.26c0.53,1.66,0.99,3.33,1.55,4.97c0.1,0.3,0.54,0.5,1.11,0.99
	c0.42-0.9,1.05-1.67,1.13-2.5c0.25-2.5,0.36-5.02,0.38-7.54c0.13-18.02,0.24-36.04,0.34-54.07c0.06-11.19,2.21-21.94,6.85-32.13
	c6.33-13.91,16.75-23.52,30.98-29.02c1.24-0.48,2.58-0.72,4.15-1.15c0.48,0.92,1.17,1.69,1.28,2.53
	c2.41,19.91-1.74,38.11-14.36,54.03c-5,6.3-11.1,11.33-18.1,15.27c-1.18,0.67-2.36,1.37-3.62,1.85c-2.8,1.06-3.61,3.09-3.52,5.93
	c0.42,13.16,0.76,26.33,1.08,39.5c0.12,4.84,0.05,9.69,0.2,14.53c0.32,10.45,0.71,20.9,1.11,31.35c0.03,0.92,0.35,1.82,0.65,3.34
	c0.91-0.9,1.6-1.31,1.86-1.91c0.7-1.59,1.15-3.29,1.82-4.89c3.59-8.53,9.59-14.43,18.69-16.85c3.81-1.02,7.69-0.8,11.54-0.39
	c1.52,0.16,2.39,1.24,2.57,2.74c2.72,22.7-8.43,41.68-28.2,47.68C740.81,718.92,736.98,719.54,733.09,720.41z"/>
</svg>
