<?xml version="1.0" encoding="utf-8"?>
<!-- Generator: Adobe Illustrator 23.0.2, SVG Export Plug-In . SVG Version: 6.00 Build 0)  -->
<svg version="1.1" id="Camada_1" xmlns="http://www.w3.org/2000/svg" xmlns:xlink="http://www.w3.org/1999/xlink" x="0px" y="0px"
	 viewBox="0 0 1350 1080" style="enable-background:new 0 0 1350 1080;" xml:space="preserve">
<style type="text/css">
	.st0{fill:#7FB23F;}
	.st1{fill:#5A473A;}
</style>
<path class="st0" d="M572.75,353.65c2.09-1.37,2.35-3.19,2.92-4.84c4.19-12.17,8.39-24.33,12.57-36.5
	c8.88-25.86,17.75-51.73,26.63-77.59c0.29-0.84,0.59-1.68,0.88-2.53c0.77-2.26,2.27-3.39,4.71-3.71c13.46-1.78,26.9-3.63,40.34-5.57
	c3.87-0.56,7.72-1.21,11.43-1.41c1.63,1.47,1.19,3.17,1.32,4.72c1.08,13.56,0.76,27.17,1.15,40.75c0.38,13.4,0.42,26.83,1.2,40.21
	c0.71,12.15,0.26,24.32,1,36.46c0.81,13.22,0.31,26.48,1.11,39.68c0.82,13.76,0.57,27.53,1.04,41.29
	c0.42,12.51,0.41,25.04,1.17,37.53c0.7,11.44,0.47,22.88,0.88,34.31c0.32,8.93,0.66,17.86,0.84,26.8c0.09,4.58,1.11,5.9-6,7.23
	c-14.73,2.75-29.4,5.87-44.09,8.87c-1.75,0.36-3.45,0.96-5.44-0.08c-0.18-0.91-0.5-1.92-0.56-2.95c-0.1-1.78-0.05-3.58-0.05-5.37
	c0-56.35,0-112.7-0.02-169.05c0-2.27,0.43-4.63-0.59-6.77c-1.69-0.22-1.95,0.9-2.13,1.95c-0.8,4.57-1.55,9.16-2.32,13.74
	c-1.98,11.8-3.97,23.6-5.94,35.4c-1.97,11.8-3.86,23.62-5.91,35.4c-0.73,4.2-0.89,8.53-2.7,12.83c-1.11,0.2-2.3,0.6-3.49,0.61
	c-15.92,0.04-31.84-0.02-47.76,0.07c-2.75,0.02-4.35-0.97-5.19-3.56c-1.1-3.4-2.35-6.75-3.52-10.13c-8.65-25-17.28-50-25.96-74.99
	c-0.68-1.96-0.95-4.19-3.09-5.93c-0.51,0.89-1.2,1.56-1.23,2.25c-0.1,2.5-0.01,5,0.09,7.5c0.14,3.39,0.44,6.78,0.51,10.17
	c0.16,7.33-0.09,14.69,0.39,22c0.91,14.11,0.68,28.25,1.15,42.36c0.35,10.54,0.38,21.1,1.04,31.63c0.77,12.15,0.59,24.31,1.03,36.46
	c0.27,7.32,0.54,14.64,0.77,21.97c0.05,1.58-0.11,3.16-0.18,4.73c-1.96,0.97-3.78,0.48-5.46,0.24c-8.48-1.18-16.94-2.54-25.41-3.8
	c-3.71-0.55-7.43-0.99-11.14-1.49c-3.33-0.45-4.04-1.16-4.19-4.35c-0.07-1.43-0.03-2.86-0.03-4.29c0-98.93,0-197.85,0-296.78
	c0-1.97,0.01-3.94,0.15-5.9c0.09-1.18,0.89-1.97,2.08-2.1c1.24-0.14,2.5-0.14,3.75-0.15c13.95-0.01,27.91-0.02,41.86,0
	c5.5,0.01,5.54,0.03,7.4,5.6c6.37,19.17,12.74,38.34,19.06,57.52c6.94,21.04,13.83,42.1,20.78,63.14
	C570.31,349.38,570.67,351.75,572.75,353.65z"/>
<path class="st0" d="M1084.69,429.54c-0.42,2.08-0.88,3.79-1.11,5.54c-0.43,3.37-0.74,6.75-1.08,10.12
	c-1.17,11.73-2.28,23.47-3.51,35.19c-0.87,8.35-1.96,16.67-2.84,25.02c-0.9,8.53-1.64,17.07-2.52,25.6
	c-0.31,3.01-0.86,5.99-1.27,8.82c-1.48,1.59-3.3,1.84-5.03,2.16c-8.95,1.67-17.9,3.28-26.86,4.91c-0.52,0.1-1.14,0.42-1.55,0.25
	c-0.75-0.3-1.85-0.79-1.99-1.39c-0.5-2.25-0.87-4.57-0.93-6.87c-0.2-7.33-0.17-14.67-0.36-22c-0.32-13.05-0.4-26.11-1.2-39.13
	c-0.68-11.08-0.34-22.17-0.89-33.24c-0.78-15.54-0.88-31.1-1.26-46.65c-0.28-11.26-0.38-22.53-1.05-33.77
	c-0.73-12.15-0.29-24.33-1.09-36.45c-0.71-10.72-0.34-21.46-0.88-32.17c-0.81-16.08-0.89-32.18-1.3-48.26
	c-0.24-9.47-0.57-18.94-0.85-28.41c-0.03-0.89-0.07-1.79-0.06-2.68c0.07-4.37,0.53-4.88,5-4.94c5.01-0.07,10.02-0.02,15.03-0.02
	c21.11,0,42.22,0,63.33,0c1.25,0,2.51,0.1,3.75-0.02c3.6-0.33,6.56,0.73,9.22,3.29c3.22,3.1,6.75,5.87,10.12,8.8
	c13.76,11.98,27.55,23.93,41.26,35.97c7.45,6.54,6.5,4.74,6.51,14.04c0.04,37.03,0.02,74.06,0.01,111.09c0,8.4,0.42,7.18-6.67,11.02
	c-7.86,4.26-15.7,8.56-23.54,12.85c-0.31,0.17-0.62,0.37-0.94,0.52c-2.2,1.06-3.11,2.61-2.63,5.19c1.05,5.62,1.83,11.28,2.78,16.92
	c1.63,9.68,3.32,19.36,4.96,29.04c1.58,9.33,3.12,18.67,4.7,28c1.64,9.68,3.31,19.36,4.97,29.04c0.6,3.52,1.2,7.04,1.8,10.56
	c0.51,3.03-0.12,3.87-3.33,3.88c-10.2,0.05-20.39,0.05-30.59,0c-2.93-0.02-3.79-0.75-4.4-3.63c-1.18-5.59-2.24-11.21-3.36-16.81
	c-4.13-20.67-8.26-41.33-12.39-62c-0.91-4.55-1.8-9.11-2.73-13.66c-0.25-1.22-0.61-2.42-0.89-3.64c-0.36-1.62-1.49-2.36-3-2.65
	c-0.7-0.13-1.42-0.23-2.13-0.23c-5.19-0.01-10.37-0.03-15.56,0.05C1087.31,428.77,1086.28,429.18,1084.69,429.54z M1083.86,380.84
	c1.13,0,2.03,0.17,2.83-0.03c1.9-0.49,3.76-1.14,5.63-1.75c11.22-3.63,22.44-7.23,33.64-10.9c4.13-1.35,4.52-1.91,4.24-6.18
	c-0.38-5.7-0.9-11.39-1.4-17.09c-0.52-6.05-1.13-12.09-1.62-18.14c-0.5-6.23-0.88-12.47-1.36-18.71
	c-0.64-8.19-1.36-16.37-1.99-24.56c-0.27-3.55-0.61-7.06-1.77-10.73c-1.62-0.25-3.19-0.69-4.76-0.7
	c-9.48-0.06-18.95-0.05-28.43-0.01c-1.76,0.01-3.58,0.06-5.19,1.64c-0.1,1.05-0.3,2.27-0.33,3.5
	C1082.79,298.44,1083.11,375.05,1083.86,380.84z"/>
<path class="st0" d="M316.32,218.18c2.94-1.17,5.8-1.32,8.64-1.44c12.5-0.49,25.01-0.89,37.51-1.42c15.54-0.67,31.07-1.44,46.6-2.15
	c8.21-0.38,16.43-0.71,24.64-1.11c3.57-0.18,7.13-0.5,10.7-0.71c1.25-0.07,2.51-0.07,3.75,0c2.06,0.13,2.75,0.87,2.9,3.05
	c0.07,1.07,0.04,2.14,0.04,3.22c0,18.78,0.01,37.55,0,56.33c0,6.28-0.03,6.32-6.21,6.32c-23.25,0.02-46.5,0-69.74,0.01
	c-1.79,0-3.58-0.02-5.36,0.13c-1.91,0.17-2.82,1.12-3.09,3.09c-0.15,1.06-0.16,2.14-0.16,3.21c-0.01,21.46-0.01,42.92,0.01,64.38
	c0,1.94-0.23,3.97,1.5,5.9c1.12,0.09,2.53,0.34,3.93,0.29c5.72-0.21,11.43-0.54,17.14-0.79c3.93-0.17,7.86-0.22,11.79-0.42
	c3.57-0.18,7.13-0.53,10.7-0.75c2.95-0.18,3.8,0.61,3.97,3.65c0.06,1.07,0.03,2.15,0.03,3.22c0,17.35,0,34.69,0,52.04
	c0,0.72-0.01,1.43,0,2.15c0.03,3.08-0.42,4.37-4.27,4.7c-5.33,0.46-10.62,1.27-15.93,1.88c-3.9,0.45-7.81,0.79-11.71,1.25
	c-5.49,0.64-10.98,1.32-16.47,2c-2.91,0.36-3.76,1.16-3.82,4.1c-0.07,3.57-0.2,7.18,0.16,10.72c0.87,8.57,0.44,17.15,0.65,25.72
	c0.05,2.14,0.01,4.3,0.2,6.43c0.21,2.26,1.13,3.06,3.49,3.21c1.6,0.1,3.22,0.07,4.83,0.07c18.6,0,37.2,0,55.8,0.01
	c6.86,0,6.94,0.06,6.95,6.82c0.02,16.99,0.02,33.98,0,50.97c-0.01,6.59-0.14,6.71-6.5,6.71c-35.77,0.01-71.53,0.01-107.3,0
	c-5.97,0-6.01-0.04-6.01-5.95c-0.02-25.57-0.01-51.15-0.01-76.72c0-77.61,0-155.22,0.02-232.84
	C315.68,223.17,315.3,220.83,316.32,218.18z"/>
<path class="st0" d="M890.85,540.61c-5-0.52-9.25-1-13.5-1.4c-5.33-0.51-10.67-0.94-16-1.43c-3.91-0.36-7.81-0.75-11.71-1.18
	c-1.72-0.19-2.56-1.13-2.61-2.83c-0.03-1.07,0.01-2.16,0.19-3.21c2.3-13.01,4.67-26.01,6.94-39.03c1.99-11.43,3.85-22.89,5.83-34.33
	c1.85-10.73,3.8-21.45,5.68-32.18c2.05-11.79,4.05-23.58,6.1-35.37c2.27-13.02,4.6-26.02,6.86-39.04
	c2.39-13.72,4.7-27.45,7.09-41.18c1.53-8.8,3.15-17.58,4.68-26.37c2.39-13.72,4.72-27.45,7.1-41.17c1.01-5.8,2.02-11.61,3.13-17.39
	c0.6-3.11,1.04-3.38,4.31-3.52c0.71-0.03,1.43-0.02,2.15-0.02c14.31,0,28.62-0.01,42.93,0.01c5.73,0.01,5.77,0.03,6.9,5.76
	c4.26,21.55,8.49,43.1,12.74,64.65c4.52,22.95,9.07,45.9,13.58,68.85c3.69,18.75,7.34,37.5,11.02,56.26
	c4.15,21.21,8.31,42.41,12.47,63.61c2.92,14.89,5.88,29.78,8.77,44.68c0.16,0.82-0.08,1.71-0.15,2.85c-2,0.51-3.85,1.15-5.76,1.45
	c-11.46,1.78-22.92,3.49-34.39,5.22c-3.07,0.46-3.96-0.15-4.76-3.52c-3.23-13.74-6.44-27.48-9.65-41.22
	c-0.85-3.65-1.62-7.33-2.56-10.96c-0.83-3.23-1.73-3.78-4.93-3.53c-7.12,0.55-14.25,1.04-21.36,1.67
	c-6.04,0.54-12.06,1.29-18.1,1.84c-2.49,0.23-5.01,0.1-7.5,0.3c-6.23,0.51-7.12,1.13-7.67,7.14c-0.53,5.86-1.64,11.67-2.47,17.5
	c-0.95,6.72-1.86,13.44-2.82,20.16C892.58,529.14,891.75,534.58,890.85,540.61z M942.76,406.2c0.05-1.05,0.21-1.76,0.1-2.43
	c-0.59-3.52-1.2-7.03-1.88-10.54c-3.41-17.5-6.86-35-10.28-52.5c-1.5-7.7-2.94-15.41-4.45-23.11c-0.3-1.52-0.41-3.19-2.01-4.06
	c-1.54,0.52-1.61,1.82-1.8,3.05c-0.58,3.7-1.16,7.4-1.75,11.09c-1.2,7.39-2.43,14.78-3.61,22.18c-1.62,10.21-3.17,20.44-4.8,30.65
	c-1.15,7.22-2.42,14.42-3.59,21.63c-0.23,1.39-0.49,2.85,1.09,4.48c9.31,1.24,19.13,0.43,28.91,0.5
	C940.03,407.16,941.36,406.54,942.76,406.2z"/>
<path class="st0" d="M173.42,540.65c-0.23-1.29-0.47-1.98-0.47-2.67c-0.01-16.81-0.01-33.62,0.03-50.44c0-0.5,0.29-1,0.45-1.48
	c1.72-0.78,3.21,0.06,4.71,0.48c14.1,3.98,28.16,8.06,42.28,11.96c5.88,1.63,4.64,2.36,10.28-1.66c4.22-3.01,8.36-6.14,12.62-9.09
	c2.28-1.57,3.41-3.56,3.3-6.31c-0.04-1.07,0.01-2.15,0.01-3.22c0-18.78-0.01-37.56,0-56.34c0.01-9.22-0.54-8.13-7.66-10.33
	c-20.13-6.23-40.29-12.32-60.44-18.47c-1.02-0.31-2.04-0.67-3.07-0.96c-1.84-0.51-2.58-1.75-2.54-3.59c0.03-1.25-0.02-2.5-0.02-3.76
	c0-46.68-0.01-93.36,0.01-140.04c0-7.13-0.61-6.28,5.85-9.89c12.64-7.07,25.29-14.11,37.83-21.36c3.32-1.92,6.53-2.33,10.24-1.81
	c7.96,1.12,15.96,1.91,23.95,2.83c8.16,0.94,16.32,1.87,24.49,2.8c4.44,0.51,8.88,1,13.31,1.49c0.89,0.1,1.79,0.09,2.67,0.23
	c3.74,0.6,4.61,1.44,4.65,5.24c0.09,8.58,0.04,17.17,0.05,25.75c0,4.83,0.01,9.66-0.01,14.49c-0.01,1.25-0.07,2.5-0.24,3.74
	c-0.2,1.4-1.12,2.24-2.52,2.35c-1.78,0.13-3.57,0.17-5.36,0.18c-17.17,0.01-34.34,0-51.51,0.01c-7.98,0.01-8.2,0.22-8.21,8.06
	c-0.02,20.93-0.02,41.85,0,62.78c0.01,7.41,0.04,7.37,7.36,9.27c18.5,4.79,36.99,9.62,55.49,14.43c5.08,1.32,5.59,1.17,5.58,7.24
	c-0.04,26.11,0.44,52.24-0.15,78.34c-0.58,25.57-0.15,51.14-0.43,76.71c-0.01,0.54-0.05,1.08-0.01,1.61
	c0.24,3.25-1.16,5.29-4.16,6.7c-7.6,3.58-15.09,7.41-22.62,11.13c-4.97,2.45-9.97,4.85-14.91,7.36c-2.31,1.17-4.46,1.52-7.15,0.98
	c-22.92-4.56-45.88-8.9-68.83-13.34C176.72,541.73,175.21,541.17,173.42,540.65z"/>
<path class="st0" d="M749.69,354.14c2.7,1.31,4.87,1.01,6.97,1.01c12.88,0.03,25.76,0.04,38.64,0.01c6.68-0.02,6.83-0.16,7.01,6.73
	c0.32,12.69,0.79,25.37,1.25,38.06c0.13,3.57,0.47,7.13,0.67,10.7c0.06,1.07,0.01,2.15-0.08,3.21c-0.13,1.41-0.93,2.3-2.35,2.52
	c-4.93,0.76-9.87,1.52-14.81,2.25c-6.71,0.99-13.42,1.95-20.12,2.93c-5.65,0.83-11.29,1.67-16.93,2.53
	c-0.52,0.08-1.01,0.32-1.77,0.58c-0.24,0.89-0.64,1.87-0.73,2.88c-0.12,1.42-0.07,2.86,0.02,4.29c0.61,9.09,1.27,18.18,1.86,27.28
	c0.2,3.03,0.24,6.07,0.38,9.11c0.12,2.5,0.21,5.01,1.55,7.6c1.04,0.17,2.23,0.41,3.43,0.55c0.7,0.08,1.43,0.02,2.14-0.03
	c9.63-0.6,19.27-1.21,28.9-1.8c1.78-0.11,3.57-0.14,5.36-0.24c5-0.28,9.99-0.59,14.99-0.86c1.78-0.1,3.57-0.15,5.36-0.14
	c1.43,0.01,2.38,0.77,2.6,2.21c0.35,2.29,0.73,4.59,0.91,6.9c0.71,8.72,1.37,17.45,2.02,26.18c0.45,6.06,0.85,12.12,1.31,18.18
	c0.19,2.49,0.45,4.98,0.73,7.47c0.22,1.95,0.49,3.89-0.3,6.03c-0.98,0.23-1.98,0.56-3,0.68c-1.06,0.12-2.14,0.04-3.22,0.04
	c-32.73,0-65.47,0-98.2-0.01c-1.61,0-3.22,0-4.82-0.15c-1.16-0.11-1.92-0.91-2.16-2.07c-0.14-0.7-0.21-1.42-0.23-2.13
	c-0.04-1.25-0.03-2.5-0.03-3.76c0-103.03,0-206.06,0.01-309.1c0-1.96,0.05-3.93,0.2-5.89c0.11-1.38,0.96-2.39,2.32-2.61
	c2.11-0.34,4.24-0.61,6.38-0.66c8.4-0.21,16.81-0.28,25.21-0.5c12.15-0.32,24.31-0.72,36.46-1.07c11.26-0.33,22.52-0.64,33.78-1
	c6.07-0.19,12.15-0.48,18.22-0.71c0.89-0.03,1.79-0.04,2.68-0.02c3.71,0.09,4.16,0.55,4.29,4.47c0.04,1.25,0.02,2.5,0.02,3.76
	c0,16.81,0,33.63,0,50.44c0,1.07,0.02,2.15-0.01,3.22c-0.12,4.46-0.42,4.8-4.99,4.91c-15.01,0.38-30.01,1.04-45.03,1.27
	c-10.71,0.17-21.42,0.97-32.15,0.87c-0.71-0.01-1.43,0.06-2.13,0.17c-1.75,0.3-2.54,1.07-2.7,2.79c-0.13,1.42-0.12,2.86-0.12,4.29
	c-0.01,20.21-0.01,40.43,0,60.64C749.5,350.08,749.62,352.02,749.69,354.14z"/>
<path class="st1" d="M247.9,629.74c1.54-0.29,2.55-0.59,3.57-0.65c9.97-0.57,40.58-0.16,44.45,0.56c1.15,1.18,0.81,2.67,0.76,4.06
	c-0.4,10.54-0.82,21.08-1.28,31.62c-0.54,12.32-1.16,24.64-1.69,36.97c-1.03,23.93-2.03,47.87-3.02,71.81
	c-0.5,12.15-0.92,24.3-1.42,36.45c-0.56,13.57-1.18,27.15-1.79,40.72c-0.06,1.24-0.22,2.48-0.36,3.96
	c-0.83,0.23-1.65,0.64-2.47,0.64c-10.37,0.03-20.74,0-31.11-0.02c-0.35,0-0.7-0.14-1.45-0.31c-0.68-1.56-1.5-3.32-2.24-5.11
	c-13.6-33.24-27.18-66.5-40.81-99.73c-0.71-1.73-1.01-3.75-3.09-5.38c-0.88,6.42,0.35,12.35,0.58,18.28
	c0.24,6.07,0.68,12.14,1.03,18.21c0.36,6.25,0.73,12.49,1.08,18.74c0.35,6.07,0.68,12.14,1.03,18.21
	c0.34,6.07,0.72,12.14,1.03,18.21c0.31,6.05,0.56,12.11,0.84,18.33c-0.84,0.24-1.5,0.58-2.16,0.58
	c-13.59,0.03-27.18,0.03-40.77,0.01c-0.68,0-1.36-0.22-2.3-0.38c-0.17-1.14-0.4-2.15-0.45-3.18c-0.08-1.61-0.04-3.22-0.04-4.83
	c0-69.92,0-139.85,0.01-209.77c0-2.49,0.1-4.97,0.15-7.66c1.18-0.36,2.16-0.92,3.14-0.92c11.09-0.05,22.17-0.02,33.26,0.01
	c0.52,0,1.03,0.23,1.97,0.46c0.75,1.52,1.66,3.23,2.47,4.98c14.55,31.67,29.08,63.35,43.64,95.01c0.78,1.7,1.19,3.69,2.94,5.03
	c0.85-3.61,0.52-11.65-0.69-26.12c-0.73-8.73-1.13-17.48-1.64-26.23c-0.51-8.57-0.95-17.14-1.47-25.7
	C249.06,647.83,248.49,639.1,247.9,629.74z"/>
<path class="st1" d="M706.32,620.12c1.89-0.17,3.28-0.4,4.67-0.4c20.75-0.02,41.5,0.03,62.25-0.07c2.89-0.01,5.06,0.88,7.17,2.83
	c12.47,11.54,25.02,23,37.58,34.45c1.65,1.51,2.73,3,2.72,5.47c-0.1,27.55-0.08,55.1-0.1,82.65c0,0.35-0.12,0.7-0.25,1.46
	c-1.03,0.77-2.26,1.78-3.57,2.67c-6.07,4.11-12.17,8.18-18.25,12.28c-1.46,0.99-2.86,2.05-4.52,3.24
	c6.41,30.24,12.77,60.28,19.21,90.66c-5.57,1.17-10.88,0.47-16.14,0.54c-5.34,0.08-10.69,0.3-16.32-0.24
	c-0.55-1.93-1.15-3.76-1.59-5.64c-5.05-21.4-10.07-42.8-15.11-64.19c-0.37-1.55-0.85-3.08-1.29-4.68c-3.22-1.2-6.07,0.52-9,0.87
	c-2.98,0.36-5.89,1.29-8.61,1.92c-1.09,2.23-0.71,4.23-0.71,6.16c-0.03,19.68-0.02,39.36-0.02,59.03c0,1.95,0,3.9,0,5.98
	c-0.91,0.31-1.55,0.73-2.19,0.73c-9.66,0.04-19.32,0.04-28.98,0.02c-0.51,0-1.02-0.25-1.68-0.42c-0.9-2.16-0.88-4.46-0.92-6.77
	c-0.21-13.23-0.39-26.47-0.67-39.7c-0.48-23.24-1.04-46.48-1.53-69.73c-0.25-11.8-0.37-23.61-0.62-35.41
	c-0.5-23.42-1.05-46.84-1.55-70.26C706.24,629.3,706.32,625.02,706.32,620.12z M747.65,670.49c-1.17,1.94-0.72,4.14-0.72,6.24
	c-0.04,17.7-0.02,35.39-0.02,53.09c0,1.61-0.08,3.23,0.06,4.82c0.09,0.96,0.54,1.9,0.86,2.93c1.22-0.22,2.1-0.32,2.95-0.53
	c9.18-2.28,18.37-4.56,27.53-6.89c0.98-0.25,1.88-0.83,2.85-1.27c-0.06-1.17-0.04-2.06-0.17-2.92c-2.81-17.64-5.63-35.28-8.49-52.91
	c-0.16-0.99-0.72-1.91-1.04-2.73C765.53,669.63,751.63,669.74,747.65,670.49z"/>
<path class="st1" d="M419.01,849.15c-24.34,4.55-48.44,8.54-73.17,13.03c-0.7-0.9-1.53-2.06-2.45-3.13
	c-12.41-14.56-24.78-29.15-37.28-43.63c-2.12-2.46-3.08-4.87-2.95-8.19c0.75-18.75,1.23-37.52,1.89-56.27
	c0.87-24.65,1.83-49.3,2.73-73.94c0.19-5.18,0.34-10.36,0.39-15.55c0.02-1.91,0.64-3.44,1.85-4.86
	c7.78-9.11,15.56-18.21,23.26-27.39c1.4-1.67,3-2.42,5.11-2.33c0.89,0.04,1.79-0.01,2.68-0.01c19.85,0,39.69-0.01,59.54,0
	c6.93,0,5.63,0.02,8.94,4.96c2.69,4.01,5.18,8.14,7.9,12.13c1.27,1.87,1.91,3.79,1.73,6.02c-0.06,0.71-0.01,1.43-0.01,2.14
	c0,63.65,0,127.3-0.01,190.95C419.17,845.02,419.07,846.95,419.01,849.15z M339.68,674.59c-0.74,5.53-0.71,123.73,0.02,128.68
	c3.64,2.28,7.66,4.59,11.43,7.25c2.44,1.72,4.85,1.92,7.59,1.31c6.45-1.42,12.92-2.71,19.38-4.12c1.53-0.33,3.01-0.89,4.7-1.4
	c0-2.35,0.07-4.47-0.01-6.6c-0.53-13.93-1.15-27.85-1.63-41.77c-0.89-25.71-1.7-51.43-2.56-77.14c-0.1-2.86-0.24-5.71-0.44-8.56
	c-0.07-1.01-0.38-2-0.6-3.08c-1.69,0-3.13-0.21-4.48,0.03C362.01,671.14,350.83,672.28,339.68,674.59z"/>
<path class="st1" d="M1099.87,632.98c2.17,0,3.95,0,5.72,0c20.92,0,41.84,0,62.75,0c1.07,0,2.15,0.09,3.22-0.01
	c1.79-0.17,3.06,0.69,4.27,1.83c2.34,2.21,4.65,4.45,7.07,6.57c1.46,1.28,2.14,2.76,2.09,4.68c-0.08,3.57-0.09,7.15-0.14,10.72
	c-0.19,13.41-0.36,26.81-0.6,40.22c-0.37,21.09-0.78,42.17-1.18,63.26c-0.32,16.8-0.63,33.6-0.97,50.39
	c-0.28,14.12-0.6,28.23-0.91,42.35c-0.02,0.7-0.14,1.4-0.22,2.23c-1.54,1.14-3.37,1.19-5.08,1.38c-7.81,0.88-15.63,1.64-23.45,2.48
	c-8.17,0.88-16.33,1.82-24.5,2.71c-7.26,0.79-14.53,1.53-21.94,2.3c-1.04-1.36-2.05-2.59-2.96-3.89
	c-8.83-12.58-17.57-25.23-26.51-37.74c-1.99-2.79-2.74-5.61-2.73-8.96c0.06-46.13,0.07-92.25-0.01-138.38
	c-0.01-3.57,0.88-6.51,2.97-9.42c6.68-9.28,13.15-18.72,19.71-28.09C1097.49,636.17,1098.57,634.75,1099.87,632.98z M1110.24,670.63
	c0,2.37,0,4.5,0,6.63c0,38.81,0,77.62,0,116.44c0,1.25,0.05,2.51,0,3.76c-0.07,1.72,0.52,3.06,1.84,4.23
	c3.89,3.42,7.74,6.91,11.54,10.43c1.43,1.32,2.91,1.71,4.87,1.45c7.79-1.05,15.61-1.9,23.41-2.88c1.92-0.24,3.82-0.71,5.75-1.08
	c1.04-2.19,0.67-4.36,0.67-6.46c0.02-42.03,0.02-84.06,0.02-126.09c0-1.25,0.06-2.51-0.04-3.75c-0.08-1.01-0.37-2-0.54-2.89
	C1152.1,669.62,1115.1,669.73,1110.24,670.63z"/>
<path class="st1" d="M1066.49,852.53c-11.42,1.62-22.45,2.1-33.62,3.46c-5.65-15.48-10.06-30.91-15.64-46.17
	c-1.57,0-2.99-0.13-4.37,0.02c-9.59,1.04-19.18,2.13-28.76,3.23c-3.27,0.38-3.67,0.74-4.55,4.23c-2.88,11.44-5.71,22.88-8.58,34.32
	c-0.3,1.2-0.69,2.38-1.11,3.8c-4.54,0.64-8.86-0.78-13.25-1.08c-4.26-0.3-8.48-1.06-12.47-1.59c-1.41-1.76-0.81-3.41-0.57-4.93
	c1.46-9.36,3.03-18.69,4.55-28.04c2.35-14.46,4.7-28.92,7.05-43.39c3.03-18.7,6.06-37.39,9.1-56.09
	c2.69-16.58,5.38-33.16,8.07-49.74c1.86-11.47,3.69-22.94,5.56-34.4c0.14-0.86,0.49-1.69,0.81-2.77c5.17-0.88,10.33-0.31,15.45-0.41
	c5.18-0.1,10.37-0.04,15.56-0.02c5.15,0.03,10.32-0.13,15.5,0.12c0.46,1.56,0.91,2.72,1.14,3.93
	c13.39,70.93,26.77,141.86,40.13,212.8C1066.6,850.51,1066.49,851.23,1066.49,852.53z M1017.02,757.88
	c-0.26-1.89-0.42-3.49-0.71-5.05c-3.69-19.31-7.4-38.61-11.12-57.91c-0.03-0.16-0.17-0.31-0.28-0.43c-0.12-0.13-0.27-0.23-0.59-0.5
	c-2.26-0.34-4.71-0.52-7.35,0.2c-0.24,1.47-0.56,2.84-0.69,4.23c-1.32,14.6-2.61,29.2-3.9,43.81c-0.38,4.27-0.76,8.55-1.06,12.83
	c-0.07,0.99,0.2,2,0.3,2.91C996.74,758.71,1012.13,758.68,1017.02,757.88z"/>
<path class="st1" d="M670.17,772.84c-6.13,0.7-12.19,0.24-18.23,0.32c-6.07,0.08-12.14,0.02-18.37,0.02
	c-0.34,1.07-0.81,1.88-0.81,2.69c-0.05,11.81-0.04,23.61-0.02,35.42c0,0.67,0.31,1.33,0.51,2.15c5.73,0.16,11.13-1.15,16.59-1.75
	c5.33-0.58,10.62-1.42,15.94-2.1c5.46-0.7,10.87-1.94,16.62-1.85c0.23,1.31,0.57,2.33,0.57,3.34c0.04,13.6,0.04,27.19,0.01,40.79
	c0,1.2-0.31,2.4-0.46,3.53c-4.73,0.73-78.64,0.73-83.63-0.01c-0.18-0.88-0.49-1.87-0.55-2.88c-0.11-1.6-0.06-3.22-0.06-4.83
	c0-71.74,0-143.47,0.01-215.21c0-2.48,0.13-4.95,0.21-7.62c10.56-1.81,20.94-1.39,31.23-2.04c10.35-0.65,20.7-1.33,31.07-1.61
	c10.35-0.29,20.67-1.67,31.27-1.16c0.27,0.89,0.69,1.68,0.75,2.51c1.01,14.99,1.97,29.98,2.92,44.97c0.03,0.51-0.17,1.04-0.27,1.54
	c-1.58,1.38-3.45,0.83-5.17,0.83c-16.46,0.04-32.92,0.02-49.37,0.03c-1.94,0-3.89,0.09-5.73,0.14c-1.42,2.66-1.06,5.21-1.11,7.66
	c-0.16,7.87-0.19,15.74-0.27,23.61c-0.07,6.62-0.15,13.24-0.19,19.85c-0.01,1.23,0.12,2.47,0.21,3.99c0.93,0.14,1.77,0.42,2.58,0.35
	c7.84-0.67,15.67-1.43,23.5-2.09c3.54-0.3,7.1-0.45,10.83-0.68c0.28,1.15,0.66,1.98,0.65,2.8c-0.21,15.02-0.46,30.04-0.73,45.06
	C670.65,771.27,670.38,771.94,670.17,772.84z"/>
<path class="st1" d="M584.11,625.53c0.84,4.81,0.84,35.2,0.02,40.01c-1.7,0.98-3.7,0.64-5.61,0.64c-13.06,0.03-26.12,0-39.18,0.04
	c-1.93,0.01-3.95-0.39-6.02,0.88c-0.12,1.03-0.37,2.24-0.4,3.44c-0.28,14.12-0.55,28.25-0.77,42.37c-0.04,2.46-0.32,4.98,0.61,7.68
	c17.15,2.91,34.21,5.8,50.98,8.65c1.36,1.99,0.97,3.82,0.98,5.56c0.04,9.84,0.02,19.68,0.02,29.52c0,25.76,0,51.52,0,77.28
	c0,2.14,0,4.27,0,6.52c-1.35,0.86-2.5,1.7-3.73,2.37c-10.35,5.67-20.75,11.24-31.04,17.01c-2.69,1.51-5.25,1.78-8.18,1.23
	c-10.7-2.03-21.43-3.94-32.15-5.91c-5.24-0.96-10.48-1.96-15.62-2.93c-0.29-0.81-0.62-1.3-0.62-1.8
	c-0.06-11.98-0.09-23.97-0.1-35.95c0-1.05,0.2-2.1,0.35-3.53c1.36,0.22,2.57,0.26,3.67,0.61c8.87,2.76,17.72,5.58,26.58,8.37
	c1.69,0.53,3.41,1,5.36,1.56c6.92-5.02,13.85-10.04,20.53-14.89c1-3.68-1.44-38.87-2.08-46.17c-8.75-4-18.03-7.19-27.11-10.87
	c-8.92-3.62-17.98-6.9-26.41-10.45c-0.41-0.63-0.52-0.77-0.59-0.93c-0.07-0.16-0.14-0.34-0.16-0.51c-0.07-0.89-0.16-1.78-0.16-2.67
	c0.01-33.81,0.02-67.62,0.05-101.43c0-0.53,0.16-1.06,0.28-1.8c1.03-0.76,2.14-1.66,3.32-2.44c7.74-5.15,15.53-10.23,23.22-15.45
	c1.89-1.28,3.77-1.86,6.02-1.65c6.05,0.56,12.11,1,18.17,1.54c6.77,0.59,13.53,1.25,20.29,1.85c4.99,0.45,9.98,0.82,14.96,1.32
	C581.17,624.76,582.69,625.23,584.11,625.53z"/>
<path class="st1" d="M833.33,679.54c-3.81-17.11-7.54-33.83-11.24-50.56c-0.22-1.01-0.17-2.08-0.25-3.16
	c0.69-0.2,1.19-0.48,1.69-0.48c39.88-0.01,79.76,0,119.64,0.02c0.5,0,1,0.25,1.86,0.49c0.72,3.44,0.3,7,0.37,10.52
	c0.07,3.75,0.02,7.51,0.02,11.27c0,3.58,0.02,7.15,0,10.73c-0.02,3.56-0.08,7.12-0.12,10.38c-1.69,1.54-3.37,1.12-4.93,1.13
	c-10.37,0.04-20.74,0.01-31.12,0.03c-1.74,0-3.49,0.17-5.46,0.27c-0.18,1.37-0.39,2.39-0.42,3.42c-0.07,1.79-0.03,3.58-0.03,5.36
	c0,56.33,0,112.67,0,169c0,2.32,0,4.63,0,7.08c-0.82,0.32-1.45,0.78-2.09,0.78c-10.01,0.05-20.03,0.04-30.04,0.01
	c-0.49,0-0.99-0.29-1.66-0.49c-0.7-1.88-0.45-3.85-0.46-5.78c-0.03-11.62-0.01-23.25-0.01-34.87c0-41.13,0-82.26-0.01-123.4
	c0-2.13-0.09-4.26-0.14-6.46c-2.2-1.43-4.53-1.5-6.79-1.78C852.74,681.92,843.34,680.77,833.33,679.54z"/>
<path class="st1" d="M1041.43,573.27c0.82,7.27,0.61,20.95-0.33,24.76c-4.39-0.41-8.82-0.82-13.24-1.24
	c-6.39-0.6-12.79-1.15-19.17-1.83c-1.92-0.2-3.92-0.47-5.69-1.2c-10.55-4.36-21.13-4.53-31.83-0.63c-0.8,0.29-1.64,0.48-2.48,0.72
	c-0.91-4.05-1.11-17.33-0.43-25.37c4.07-3.99,9.22-6.35,14.72-8.04c5.01-1.55,10.15-1.91,15.36-1.4c2.58,0.25,4.73,1.14,6.39,3.34
	c2.04,2.7,4.52,5.07,6.54,7.78c1.69,2.28,3.72,2.96,6.44,2.89c6.06-0.15,12.13-0.06,18.2-0.03
	C1037.66,573.03,1039.41,573.17,1041.43,573.27z"/>
</svg>
