<?xml version="1.0" encoding="utf-8"?>
<!-- Generator: Adobe Illustrator 23.0.2, SVG Export Plug-In . SVG Version: 6.00 Build 0)  -->
<svg version="1.1" id="Camada_1" xmlns="http://www.w3.org/2000/svg" xmlns:xlink="http://www.w3.org/1999/xlink" x="0px" y="0px"
	 viewBox="0 0 1350 1080" style="enable-background:new 0 0 1350 1080;" xml:space="preserve">
<style type="text/css">
	.st0{fill:#5A473A;}
	.st1{fill:#7FB23F;}
</style>
<g>
	<path class="st0" d="M373.01,531c-0.29-2.15-0.56-3.57-0.66-5.01c-0.74-10.39-0.8-20.79,0.03-31.18
		c0.56-6.99,1.61-13.93,3.09-20.79c3.39-15.69,4.84-31.54,3.95-47.57c-0.31-5.55-1-11.08-1.61-16.6c-0.23-2.05-0.98-3.98-1.97-5.81
		c-2.67-4.95-8.33-7.76-14.56-5.21c-1.93,0.79-3.68,1.87-5.12,3.36c-6.89,7.13-13.85,14.2-20.17,21.86
		c-9.41,11.4-17.93,23.43-25.67,36.01c-0.68,1.11-1.41,2.2-2.23,3.46c-0.65-0.56-1.15-0.89-1.52-1.33
		c-4.82-5.69-6.11-12.19-4.3-19.35c0.84-3.33,2.47-6.28,4.61-8.96c4.16-5.19,8.33-10.38,12.42-15.62c1.03-1.32,1.88-2.8,2.61-4.31
		c0.56-1.16-0.36-2.12-1.69-1.95c-1.87,0.24-3.43,1.15-4.82,2.35c-1.56,1.34-3.05,2.76-4.57,4.14
		c-13.21,12.08-26.42,24.16-39.62,36.25c-0.8,0.73-1.57,1.52-2.42,2.19c-2.6,2.05-5.49,2.49-8.51,1.16
		c-2.97-1.3-4.23-3.83-4.44-6.94c-0.24-3.5,1.04-6.31,3.67-8.66c7.11-6.38,14.16-12.84,21.23-19.26c4.56-4.15,9.12-8.3,13.69-12.45
		c1.45-1.31,2.73-2.74,3.37-4.65c0.44-1.32-0.4-2.49-1.79-2.38c-1.72,0.14-3.29,0.79-4.66,1.82c-0.96,0.73-1.86,1.55-2.77,2.34
		c-9.19,8.05-18.38,16.1-27.58,24.14c-0.91,0.8-1.79,1.66-2.8,2.3c-4.19,2.69-9.49,0.22-10.16-4.7c-0.46-3.37,0.53-6.12,3.19-8.38
		c6.91-5.88,13.72-11.87,20.57-17.82c3.11-2.7,6.26-5.34,9.29-8.12c1.32-1.21,2.43-2.67,3.53-4.1c0.5-0.65,0.83-1.48,1.08-2.28
		c0.58-1.78-0.43-2.81-2.3-2.41c-2.19,0.47-4,1.64-5.68,3.06c-5.46,4.6-10.94,9.17-16.41,13.75c-3.34,2.79-6.69,5.57-10.02,8.39
		c-1.64,1.39-3.45,2.18-5.63,2.09c-2.8-0.12-4.87-1.66-5.49-4.39c-0.75-3.26-0.16-6.26,2.26-8.73c0.68-0.69,1.43-1.3,2.16-1.94
		c8.21-7.15,16.43-14.28,24.62-21.46c1.36-1.19,2.6-2.52,3.77-3.9c0.69-0.82,1.21-1.81,1.66-2.79c0.65-1.43-0.14-2.43-1.68-2.2
		c-2.21,0.33-4.11,1.4-5.88,2.69c-1.07,0.78-2.06,1.69-3.07,2.55c-7.38,6.25-14.76,12.51-22.15,18.76
		c-0.92,0.78-1.83,1.61-2.87,2.21c-3.7,2.16-8.78,1.2-9.72-4.73c-0.5-3.17,0.46-5.9,2.73-8.28c7.03-7.34,13.88-14.84,20.97-22.11
		c10.64-10.91,21.3-21.81,32.16-32.49c14.76-14.52,30.41-28.03,47.14-40.26c9.24-6.75,19.47-11.09,30.71-13.18
		c8.88-1.65,17.76-1.75,26.71-0.67c11.54,1.38,22.39,4.83,32.67,10.23c8.66,4.55,16.27,10.48,22.78,17.74
		c4.03,4.5,7.99,9.1,11.58,13.95c11.03,14.87,21.37,30.21,30.41,46.39c14.43,25.85,24.44,53.35,30.67,82.25
		c2.68,12.42,4.6,24.97,5.71,37.62c1.18,13.38,1.55,26.79,1.07,40.23c-0.32,8.95-0.92,17.87-2.36,26.72
		c-2.22,13.65-5.62,26.96-11.31,39.63c-5.95,13.25-12.89,25.99-20.08,38.59c-8.46,14.81-17.44,29.3-26.85,43.53
		c-4.21,6.37-9.09,12.22-13.8,18.21c-15.6,19.89-33.79,37.24-53.04,53.51c-2.03,1.71-4.19,3.28-6.41,4.74
		c-6.19,4.05-12.87,4.59-19.8,2.33c-5.39-1.76-10.01-4.74-13.72-9.11c-5.43-6.39-9.35-13.54-10.74-21.86
		c-0.53-3.2-0.66-6.5-0.61-9.75c0.08-5.56,0.49-11.11,0.68-16.67c0.12-3.62,0.11-7.25,0.14-10.88c0.13-15.24,0.16-30.48,0.42-45.72
		c0.09-5.43,0.23-10.87,1.06-16.28c1.59-10.38,6.59-18.83,14.22-25.85c0.78-0.72,1.77-1.26,2.74-1.72
		c8.94-4.17,18.31-6.87,28.15-7.81c4.62-0.44,9.01-1.78,13.27-3.5c18.63-7.52,32.75-19.99,40.87-38.55
		c9.37-21.43,7.87-42.38-3.84-62.6c-0.97-1.67-1.99-3.32-3.12-4.89c-2.47-3.45-5.65-5.87-9.89-6.87c-3.1-0.73-6.02-0.28-8.84,0.97
		c-3.29,1.46-5.78,3.82-7.73,6.88c-10.4,16.33-21.62,32.09-33.5,47.38c-1.78,2.29-3.59,4.57-5.39,6.84
		C374.6,529.23,374.03,529.83,373.01,531z"/>
	<path class="st1" d="M306.38,596.1c-0.82,1.4-0.62,2.64-0.55,3.82c0.37,5.79,0.8,11.57,1.21,17.36c0.03,0.36,0.08,0.72,0.1,1.08
		c0.29,5.67,0.53,11.35,0.88,17.02c0.35,5.55,0.81,11.08,1.23,16.63c0.03,0.36,0.05,0.72,0.07,1.09c0.29,5.79,0.54,11.59,0.89,17.38
		c0.34,5.55,0.98,11.08,1.17,16.63c0.29,8.58,1.41,17.11,1.02,25.72c-0.45,9.98-3.15,19.3-8.02,27.97
		c-5.33,9.49-12.76,16.96-22.23,22.38c-1.7,0.98-3.48,1.44-5.44,1.74c-6.75,1.01-13.53,0.87-20.27,0.49
		c-6.38-0.36-12.69-1.51-18.89-3.18c-16.16-4.36-30.45-12.17-43.16-23c-4.05-3.45-8.27-6.7-12.34-10.13
		c-10.74-9.06-20.75-18.88-30.19-29.28c-11.89-13.1-22.63-27.1-32.27-41.94c-10.84-16.67-20.1-34.18-27.95-52.44
		c-8.28-19.26-14.68-39.14-19.5-59.53c-2.48-10.46-4.39-21.04-5.95-31.68c-0.17-1.19-0.16-2.41-0.16-3.62
		c0-7.14-0.14-14.28,0.08-21.41c0.17-5.55,0.83-11.08,1.22-16.62c0.51-7.24,1.71-14.38,2.93-21.53c2.06-12.05,5.05-23.86,8.75-35.51
		c5.06-15.96,11.67-31.25,19.64-45.96c9.61-17.72,21.14-34.12,34.39-49.3c17.36-19.88,37.03-37.16,58.84-52
		c10.71-7.29,21.83-13.91,33.42-19.69c12.95-6.47,26.56-10.96,40.88-13.23c4.3-0.68,8.61-1.24,12.96-1.42
		c1.33-0.05,2.66-0.17,3.98-0.27c15.37-1.2,28.58,3.53,39.51,14.44c0.57,0.57,1.01,1.28,1.57,2.01c-0.47,0.3-0.74,0.61-1.05,0.66
		c-16.09,2.65-30.94,8.44-44.57,17.41c-14.77,9.72-26.81,22.12-36.39,36.95c-5.3,8.21-8.89,17.14-11.18,26.62
		c-1.68,6.93-2.93,13.93-3.82,21.02c-0.96,7.68-1.66,15.36-2.18,23.08c-0.44,6.53-0.52,13.04-0.64,19.57
		c-0.09,5.08-0.38,10.15-0.33,15.23c0.08,8.58,0.25,17.17,0.58,25.75c0.31,7.85,0.8,15.69,1.39,23.53
		c0.5,6.62,1.22,13.23,1.92,19.83c0.7,6.6,1.49,13.2,2.22,19.8c0.03,0.29-0.16,0.61-0.35,1.28c-0.72-1.03-1.29-1.77-1.78-2.56
		c-5.17-8.34-8.4-17.35-9.7-27.1c-0.89-6.71-1.57-13.43-2.16-20.17c-0.52-6.02-1.29-12.01-1.92-18.02
		c-0.79-7.57-1.48-15.15-2.34-22.71c-1.01-8.85-4.03-16.89-9.92-23.71c-5.48-6.35-12.37-10.02-20.74-10.6
		c-4.64-0.32-9.09,0.88-13.42,2.56c-2.88,1.12-5.24,2.85-7.28,5.2c-12.66,14.58-20.72,31.38-24.48,50.28
		c-1.92,9.68-2.14,19.48-1.49,29.26c0.61,9.06,2.5,17.93,5.32,26.59c1.09,3.36,2.7,6.47,4.4,9.53c7.4,13.4,16.18,25.81,26.63,37.02
		c2.47,2.65,4.9,5.35,7.4,7.98c3.09,3.25,6.37,6.3,10.06,8.86c5.79,4.02,12.12,5.87,19.21,4.75c1.55-0.24,3.14-0.19,4.7-0.32
		c7-0.62,12.81,1.98,17.74,6.71c1.99,1.91,3.73,4.12,5.37,6.36c0.9,1.24,1.54,2.75,1.98,4.23c5.56,18.4,10.51,36.95,14.68,55.72
		c2.38,10.73,4.74,21.47,7.23,32.17c1.45,6.24,3.15,12.43,5.85,18.27c1.16,2.5,2.58,4.95,4.27,7.13c4.46,5.77,11.66,7.69,18.94,5.51
		c1.5-0.45,2.46-1.42,3.33-2.63c4.14-5.77,7.07-12.12,8.72-19c1.82-7.56,2.58-15.21,1.7-23.02c-0.42-3.71-0.13-7.5-0.36-11.24
		c-0.77-12.56-0.27-25.16-0.83-37.71c-0.51-11.49-0.26-22.97-0.47-34.46c-0.02-0.85-0.04-1.69-0.12-2.54
		c-0.13-1.37-0.8-2.24-2.26-2.37c-0.36-0.03-0.71-0.12-1.06-0.21c-10.58-2.67-17.49-9.36-21.3-19.45
		c-1.51-3.99-2.36-8.13-2.73-12.35c-0.31-3.5,0.23-3.88,3.56-3.32c13.13,2.21,20.86,10.33,24.76,22.63c0.33,1.03,0.62,2.08,0.97,3.1
		c0.06,0.19,0.33,0.31,0.69,0.62c0.26-0.56,0.65-1.04,0.71-1.56c0.15-1.56,0.23-3.14,0.24-4.71c0.08-11.25,0.15-22.5,0.21-33.75
		c0.04-6.98,1.38-13.7,4.28-20.06c3.95-8.68,10.46-14.68,19.34-18.12c0.78-0.3,1.61-0.45,2.59-0.72c0.3,0.58,0.73,1.05,0.8,1.58
		c1.51,12.43-1.09,23.79-8.96,33.73c-3.12,3.94-6.93,7.07-11.3,9.53c-0.74,0.42-1.47,0.85-2.26,1.15c-1.75,0.66-2.26,1.93-2.2,3.7
		c0.26,8.22,0.47,16.43,0.67,24.65c0.07,3.02,0.03,6.05,0.12,9.07c0.2,6.52,0.44,13.05,0.69,19.57c0.02,0.57,0.22,1.14,0.41,2.09
		c0.57-0.56,1-0.82,1.16-1.19c0.44-0.99,0.72-2.05,1.14-3.05c2.24-5.33,5.98-9.01,11.67-10.52c2.38-0.63,4.8-0.5,7.21-0.24
		c0.95,0.1,1.49,0.77,1.6,1.71c1.7,14.17-5.26,26.02-17.6,29.76C311.2,595.17,308.81,595.55,306.38,596.1z"/>
	<path class="st1" d="M861.97,377.49c1.41-0.93,1.59-2.16,1.98-3.27c2.84-8.23,5.68-16.45,8.5-24.68
		c6.01-17.49,12.01-34.98,18.01-52.47c0.2-0.57,0.4-1.14,0.59-1.71c0.52-1.53,1.54-2.29,3.19-2.51c9.1-1.21,18.19-2.45,27.28-3.77
		c2.62-0.38,5.22-0.82,7.73-0.95c1.1,0.99,0.81,2.14,0.89,3.19c0.73,9.17,0.52,18.37,0.78,27.56c0.26,9.06,0.29,18.14,0.81,27.19
		c0.48,8.22,0.17,16.45,0.68,24.65c0.55,8.94,0.21,17.9,0.75,26.83c0.56,9.31,0.39,18.62,0.7,27.92c0.28,8.46,0.28,16.93,0.79,25.38
		c0.47,7.74,0.32,15.47,0.6,23.2c0.22,6.04,0.44,12.08,0.57,18.12c0.06,3.1,0.75,3.99-4.06,4.89c-9.96,1.86-19.88,3.97-29.81,6
		c-1.18,0.24-2.33,0.65-3.68-0.05c-0.12-0.62-0.34-1.3-0.38-1.99c-0.07-1.21-0.03-2.42-0.03-3.63c0-38.11,0-76.21-0.01-114.32
		c0-1.54,0.29-3.13-0.4-4.58c-1.14-0.15-1.32,0.61-1.44,1.32c-0.54,3.09-1.05,6.19-1.57,9.29c-1.34,7.98-2.68,15.96-4.02,23.94
		c-1.33,7.98-2.61,15.97-4,23.94c-0.49,2.84-0.61,5.77-1.83,8.67c-0.75,0.14-1.55,0.41-2.36,0.41c-10.77,0.03-21.53-0.01-32.3,0.05
		c-1.86,0.01-2.94-0.66-3.51-2.41c-0.74-2.3-1.59-4.57-2.38-6.85c-5.85-16.9-11.69-33.81-17.56-50.71
		c-0.46-1.32-0.64-2.83-2.09-4.01c-0.34,0.6-0.81,1.05-0.83,1.52c-0.07,1.69-0.01,3.38,0.06,5.07c0.09,2.29,0.3,4.58,0.35,6.88
		c0.11,4.96-0.06,9.93,0.26,14.87c0.62,9.54,0.46,19.1,0.78,28.65c0.24,7.13,0.26,14.27,0.7,21.39c0.52,8.22,0.4,16.44,0.7,24.66
		c0.18,4.95,0.37,9.9,0.52,14.86c0.03,1.07-0.08,2.14-0.12,3.2c-1.32,0.66-2.55,0.32-3.69,0.17c-5.74-0.8-11.45-1.72-17.18-2.57
		c-2.51-0.37-5.02-0.67-7.54-1.01c-2.25-0.3-2.73-0.78-2.83-2.94c-0.05-0.97-0.02-1.94-0.02-2.9c0-66.9,0-133.8,0-200.69
		c0-1.33,0.01-2.66,0.1-3.99c0.06-0.8,0.6-1.33,1.4-1.42c0.84-0.1,1.69-0.1,2.53-0.1c9.44-0.01,18.87-0.01,28.31,0
		c3.72,0.01,3.75,0.02,5,3.79c4.31,12.96,8.61,25.93,12.89,38.9c4.69,14.23,9.35,28.47,14.05,42.7
		C860.33,374.6,860.56,376.2,861.97,377.49z"/>
	<path class="st1" d="M1208.17,428.8c-0.29,1.41-0.6,2.57-0.75,3.75c-0.29,2.28-0.5,4.56-0.73,6.85c-0.79,7.93-1.54,15.87-2.37,23.8
		c-0.59,5.64-1.32,11.27-1.92,16.92c-0.61,5.77-1.11,11.54-1.71,17.31c-0.21,2.03-0.58,4.05-0.86,5.96c-1,1.07-2.23,1.24-3.4,1.46
		c-6.05,1.13-12.11,2.22-18.16,3.32c-0.35,0.06-0.77,0.28-1.05,0.17c-0.51-0.21-1.25-0.54-1.34-0.94c-0.34-1.52-0.58-3.09-0.63-4.65
		c-0.13-4.96-0.12-9.92-0.24-14.88c-0.22-8.82-0.27-17.66-0.81-26.46c-0.46-7.5-0.23-14.99-0.6-22.48
		c-0.53-10.51-0.59-21.03-0.85-31.55c-0.19-7.61-0.26-15.24-0.71-22.84c-0.49-8.22-0.2-16.45-0.74-24.65
		c-0.48-7.25-0.23-14.51-0.6-21.75c-0.55-10.87-0.6-21.76-0.88-32.64c-0.16-6.41-0.38-12.81-0.58-19.21
		c-0.02-0.6-0.05-1.21-0.04-1.81c0.05-2.95,0.36-3.3,3.38-3.34c3.39-0.05,6.77-0.02,10.16-0.02c14.27,0,28.55,0,42.82,0
		c0.85,0,1.7,0.06,2.54-0.01c2.43-0.22,4.44,0.49,6.23,2.23c2.17,2.09,4.56,3.97,6.84,5.95c9.31,8.1,18.63,16.18,27.9,24.32
		c5.04,4.42,4.4,3.21,4.4,9.5c0.03,25.04,0.02,50.08,0.01,75.12c0,5.68,0.28,4.85-4.51,7.45c-5.32,2.88-10.61,5.79-15.92,8.69
		c-0.21,0.12-0.42,0.25-0.63,0.35c-1.49,0.72-2.11,1.76-1.78,3.51c0.71,3.8,1.24,7.63,1.88,11.44c1.1,6.55,2.25,13.09,3.36,19.64
		c1.07,6.31,2.11,12.63,3.18,18.94c1.11,6.55,2.24,13.09,3.36,19.64c0.41,2.38,0.81,4.76,1.22,7.14c0.35,2.05-0.08,2.61-2.25,2.63
		c-6.9,0.04-13.79,0.04-20.69,0c-1.98-0.01-2.56-0.51-2.98-2.46c-0.8-3.78-1.52-7.58-2.27-11.37c-2.79-13.98-5.58-27.95-8.38-41.93
		c-0.62-3.08-1.22-6.16-1.85-9.24c-0.17-0.83-0.42-1.64-0.6-2.46c-0.25-1.1-1.01-1.6-2.03-1.79c-0.47-0.09-0.96-0.16-1.44-0.16
		c-3.51-0.01-7.02-0.02-10.52,0.03C1209.94,428.28,1209.24,428.56,1208.17,428.8z M1207.61,395.87c0.76,0,1.37,0.12,1.92-0.02
		c1.28-0.33,2.54-0.77,3.8-1.18c7.59-2.45,15.18-4.89,22.75-7.37c2.79-0.92,3.06-1.29,2.87-4.18c-0.26-3.86-0.61-7.71-0.94-11.56
		c-0.35-4.09-0.76-8.18-1.09-12.27c-0.34-4.21-0.59-8.43-0.92-12.65c-0.43-5.54-0.92-11.07-1.35-16.61c-0.18-2.4-0.42-4.78-1.2-7.26
		c-1.1-0.17-2.16-0.47-3.22-0.48c-6.41-0.04-12.82-0.03-19.23-0.01c-1.19,0-2.42,0.04-3.51,1.11c-0.07,0.71-0.2,1.54-0.23,2.37
		C1206.88,340.15,1207.1,391.95,1207.61,395.87z"/>
	<path class="st1" d="M688.57,285.88c1.99-0.79,3.92-0.9,5.84-0.97c8.45-0.33,16.91-0.6,25.37-0.96
		c10.51-0.45,21.01-0.97,31.51-1.46c5.55-0.26,11.11-0.48,16.66-0.75c2.41-0.12,4.82-0.34,7.23-0.48c0.84-0.05,1.7-0.05,2.54,0
		c1.39,0.09,1.86,0.59,1.96,2.07c0.05,0.72,0.03,1.45,0.03,2.18c0,12.7,0.01,25.4,0,38.09c0,4.25-0.02,4.27-4.2,4.27
		c-15.72,0.01-31.44,0-47.16,0.01c-1.21,0-2.42-0.02-3.62,0.09c-1.29,0.11-1.91,0.76-2.09,2.09c-0.1,0.71-0.11,1.45-0.11,2.17
		c-0.01,14.51-0.01,29.02,0.01,43.54c0,1.31-0.16,2.69,1.02,3.99c0.76,0.06,1.71,0.23,2.66,0.19c3.86-0.14,7.73-0.37,11.59-0.53
		c2.66-0.11,5.32-0.15,7.97-0.29c2.41-0.12,4.82-0.36,7.23-0.51c1.99-0.12,2.57,0.41,2.69,2.47c0.04,0.72,0.02,1.45,0.02,2.18
		c0,11.73,0,23.46,0,35.19c0,0.48-0.01,0.97,0,1.45c0.02,2.08-0.28,2.96-2.89,3.18c-3.6,0.31-7.18,0.86-10.77,1.27
		c-2.64,0.3-5.28,0.54-7.92,0.84c-3.71,0.43-7.43,0.9-11.14,1.35c-1.97,0.24-2.54,0.78-2.58,2.78c-0.05,2.42-0.13,4.85,0.11,7.25
		c0.59,5.79,0.3,11.6,0.44,17.39c0.04,1.45,0.01,2.91,0.14,4.35c0.14,1.53,0.76,2.07,2.36,2.17c1.08,0.07,2.18,0.05,3.26,0.05
		c12.58,0,25.15,0,37.73,0c4.64,0,4.69,0.04,4.7,4.61c0.02,11.49,0.02,22.98,0,34.47c-0.01,4.46-0.09,4.54-4.4,4.54
		c-24.19,0.01-48.37,0.01-72.56,0c-4.04,0-4.06-0.03-4.07-4.02c-0.01-17.29-0.01-34.59-0.01-51.88c0-52.48,0-104.97,0.01-157.45
		C688.13,289.25,687.88,287.67,688.57,285.88z"/>
	<path class="st1" d="M1077.08,503.92c-3.38-0.35-6.25-0.68-9.13-0.95c-3.61-0.34-7.22-0.63-10.82-0.97
		c-2.64-0.25-5.28-0.5-7.92-0.8c-1.16-0.13-1.73-0.76-1.77-1.91c-0.02-0.72,0-1.46,0.13-2.17c1.55-8.8,3.16-17.59,4.69-26.39
		c1.35-7.73,2.6-15.48,3.94-23.21c1.25-7.26,2.57-14.5,3.84-21.76c1.39-7.97,2.74-15.95,4.12-23.92c1.53-8.8,3.11-17.6,4.64-26.4
		c1.61-9.28,3.18-18.57,4.79-27.85c1.03-5.95,2.13-11.89,3.16-17.84c1.61-9.28,3.19-18.56,4.8-27.84c0.68-3.93,1.37-7.85,2.12-11.76
		c0.4-2.1,0.7-2.28,2.91-2.38c0.48-0.02,0.97-0.01,1.45-0.01c9.68,0,19.35-0.01,29.03,0c3.87,0.01,3.9,0.02,4.67,3.89
		c2.88,14.57,5.74,29.15,8.61,43.72c3.06,15.52,6.13,31.04,9.18,46.56c2.49,12.68,4.97,25.36,7.45,38.04
		c2.81,14.34,5.62,28.68,8.43,43.02c1.98,10.07,3.97,20.14,5.93,30.22c0.11,0.55-0.05,1.16-0.1,1.93c-1.35,0.35-2.6,0.78-3.89,0.98
		c-7.75,1.21-15.5,2.36-23.25,3.53c-2.07,0.31-2.68-0.1-3.22-2.38c-2.19-9.29-4.35-18.58-6.53-27.87c-0.58-2.47-1.09-4.96-1.73-7.41
		c-0.56-2.18-1.17-2.56-3.34-2.39c-4.82,0.37-9.63,0.7-14.44,1.13c-4.09,0.36-8.16,0.87-12.24,1.25c-1.68,0.15-3.39,0.07-5.07,0.2
		c-4.21,0.34-4.82,0.77-5.18,4.83c-0.36,3.96-1.11,7.89-1.67,11.83c-0.65,4.54-1.26,9.09-1.91,13.63
		C1078.26,496.16,1077.69,499.84,1077.08,503.92z M1112.19,413.02c0.04-0.71,0.14-1.19,0.07-1.64c-0.4-2.38-0.81-4.76-1.27-7.12
		c-2.31-11.84-4.64-23.67-6.95-35.5c-1.02-5.21-1.99-10.42-3.01-15.63c-0.2-1.03-0.27-2.16-1.36-2.75
		c-1.04,0.35-1.09,1.23-1.22,2.06c-0.4,2.5-0.78,5-1.19,7.5c-0.81,5-1.65,10-2.44,15c-1.09,6.91-2.14,13.82-3.24,20.72
		c-0.78,4.88-1.63,9.75-2.43,14.63c-0.15,0.94-0.33,1.93,0.73,3.03c6.3,0.84,12.94,0.29,19.55,0.34
		C1110.34,413.67,1111.24,413.25,1112.19,413.02z"/>
	<path class="st1" d="M591.93,503.94c-0.16-0.87-0.31-1.34-0.32-1.81c-0.01-11.37,0-22.74,0.02-34.11c0-0.34,0.2-0.68,0.3-1
		c1.16-0.53,2.17,0.04,3.18,0.33c9.53,2.69,19.04,5.45,28.59,8.09c3.98,1.1,3.14,1.59,6.95-1.12c2.86-2.03,5.65-4.16,8.54-6.15
		c1.54-1.06,2.31-2.41,2.23-4.26c-0.03-0.72,0.01-1.45,0.01-2.18c0-12.7,0-25.4,0-38.1c0-6.24-0.36-5.5-5.18-6.99
		c-13.61-4.21-27.25-8.33-40.87-12.49c-0.69-0.21-1.38-0.46-2.07-0.65c-1.24-0.35-1.74-1.19-1.72-2.43
		c0.02-0.85-0.01-1.69-0.01-2.54c0-31.57-0.01-63.14,0-94.7c0-4.82-0.41-4.25,3.96-6.69c8.55-4.78,17.11-9.54,25.58-14.44
		c2.24-1.3,4.42-1.58,6.92-1.22c5.38,0.76,10.79,1.29,16.19,1.91c5.52,0.64,11.04,1.27,16.56,1.89c3,0.34,6,0.68,9,1.01
		c0.6,0.07,1.21,0.06,1.81,0.15c2.53,0.41,3.12,0.98,3.14,3.54c0.06,5.8,0.03,11.61,0.03,17.42c0,3.27,0.01,6.53-0.01,9.8
		c0,0.84-0.05,1.69-0.16,2.53c-0.14,0.95-0.76,1.52-1.71,1.59c-1.2,0.09-2.41,0.12-3.62,0.12c-11.61,0.01-23.22,0-34.83,0.01
		c-5.39,0.01-5.55,0.15-5.55,5.45c-0.01,14.15-0.01,28.3,0,42.45c0,5.01,0.03,4.99,4.98,6.27c12.51,3.24,25.02,6.51,37.53,9.76
		c3.43,0.89,3.78,0.79,3.78,4.9c-0.03,17.66,0.3,35.32-0.1,52.97c-0.39,17.29-0.1,34.58-0.29,51.87c0,0.36-0.03,0.73,0,1.09
		c0.16,2.2-0.78,3.57-2.81,4.53c-5.14,2.42-10.2,5.01-15.3,7.52c-3.36,1.66-6.74,3.28-10.08,4.98c-1.56,0.79-3.01,1.03-4.84,0.66
		c-15.5-3.09-31.03-6.02-46.54-9.02C594.16,504.67,593.15,504.29,591.93,503.94z"/>
	<path class="st1" d="M981.63,377.82c1.82,0.89,3.29,0.68,4.72,0.68c8.71,0.02,17.42,0.02,26.13,0c4.52-0.01,4.62-0.11,4.74,4.55
		c0.22,8.58,0.54,17.16,0.85,25.74c0.09,2.41,0.32,4.82,0.45,7.24c0.04,0.72,0.01,1.45-0.06,2.17c-0.08,0.96-0.63,1.55-1.59,1.7
		c-3.34,0.52-6.67,1.03-10.02,1.52c-4.53,0.67-9.07,1.32-13.61,1.98c-3.82,0.56-7.64,1.13-11.45,1.71c-0.35,0.05-0.68,0.22-1.2,0.39
		c-0.16,0.6-0.44,1.27-0.49,1.95c-0.08,0.96-0.05,1.94,0.02,2.9c0.41,6.15,0.86,12.3,1.26,18.45c0.13,2.05,0.16,4.11,0.26,6.16
		c0.08,1.69,0.14,3.39,1.05,5.14c0.7,0.12,1.51,0.28,2.32,0.37c0.48,0.05,0.97,0.01,1.45-0.02c6.51-0.4,13.03-0.82,19.54-1.22
		c1.21-0.07,2.42-0.09,3.62-0.16c3.38-0.19,6.76-0.4,10.14-0.58c1.21-0.07,2.42-0.1,3.62-0.09c0.97,0.01,1.61,0.52,1.76,1.49
		c0.24,1.55,0.49,3.1,0.62,4.67c0.48,5.9,0.93,11.8,1.37,17.71c0.31,4.1,0.57,8.2,0.88,12.29c0.13,1.69,0.3,3.37,0.49,5.05
		c0.15,1.32,0.33,2.63-0.21,4.08c-0.66,0.16-1.34,0.38-2.03,0.46c-0.72,0.08-1.45,0.03-2.18,0.03c-22.14,0-44.27,0-66.41,0
		c-1.09,0-2.18,0-3.26-0.1c-0.79-0.08-1.3-0.61-1.46-1.4c-0.1-0.47-0.14-0.96-0.15-1.44c-0.03-0.85-0.02-1.69-0.02-2.54
		c0-69.67,0-139.35,0-209.02c0-1.33,0.04-2.66,0.14-3.98c0.07-0.93,0.65-1.62,1.57-1.77c1.42-0.23,2.87-0.41,4.31-0.45
		c5.68-0.15,11.37-0.19,17.05-0.34c8.22-0.21,16.44-0.48,24.65-0.73c7.61-0.23,15.23-0.43,22.84-0.67
		c4.11-0.13,8.21-0.32,12.32-0.48c0.6-0.02,1.21-0.03,1.81-0.01c2.51,0.06,2.81,0.37,2.9,3.02c0.03,0.85,0.01,1.69,0.01,2.54
		c0,11.37,0,22.74,0,34.11c0,0.73,0.01,1.45-0.01,2.18c-0.08,3.02-0.29,3.24-3.37,3.32c-10.15,0.26-20.3,0.7-30.45,0.86
		c-7.24,0.11-14.48,0.66-21.74,0.59c-0.48,0-0.97,0.04-1.44,0.12c-1.18,0.2-1.72,0.72-1.83,1.89c-0.09,0.96-0.08,1.93-0.08,2.9
		c0,13.67-0.01,27.34,0,41.01C981.5,375.07,981.58,376.38,981.63,377.82z"/>
	<path class="st0" d="M642.3,564.19c1.04-0.2,1.72-0.4,2.42-0.44c6.74-0.39,27.44-0.11,30.06,0.38c0.78,0.8,0.55,1.8,0.51,2.74
		c-0.27,7.13-0.55,14.26-0.86,21.38c-0.37,8.33-0.79,16.67-1.15,25c-0.7,16.19-1.37,32.37-2.04,48.56
		c-0.34,8.21-0.62,16.43-0.96,24.65c-0.38,9.18-0.8,18.36-1.21,27.54c-0.04,0.84-0.15,1.68-0.24,2.68
		c-0.56,0.15-1.12,0.43-1.67,0.44c-7.01,0.02-14.03,0-21.04-0.01c-0.24,0-0.47-0.1-0.98-0.21c-0.46-1.05-1.02-2.24-1.51-3.46
		c-9.2-22.48-18.38-44.97-27.6-67.44c-0.48-1.17-0.68-2.54-2.09-3.64c-0.6,4.34,0.23,8.35,0.39,12.36c0.16,4.11,0.46,8.21,0.7,12.31
		c0.24,4.22,0.49,8.45,0.73,12.67c0.23,4.1,0.46,8.21,0.69,12.31c0.23,4.1,0.49,8.21,0.7,12.31c0.21,4.09,0.38,8.19,0.57,12.39
		c-0.57,0.16-1.01,0.39-1.46,0.39c-9.19,0.02-18.38,0.02-27.57,0.01c-0.46,0-0.92-0.15-1.56-0.26c-0.11-0.77-0.27-1.46-0.31-2.15
		c-0.05-1.09-0.03-2.18-0.03-3.26c0-47.29,0-94.57,0-141.86c0-1.68,0.07-3.36,0.1-5.18c0.8-0.24,1.46-0.62,2.12-0.62
		c7.5-0.03,14.99-0.01,22.49,0.01c0.35,0,0.7,0.16,1.33,0.31c0.51,1.03,1.12,2.18,1.67,3.37c9.84,21.42,19.66,42.84,29.51,64.25
		c0.53,1.15,0.8,2.5,1.99,3.4c0.58-2.44,0.35-7.88-0.47-17.67c-0.49-5.9-0.76-11.82-1.11-17.74c-0.34-5.79-0.65-11.59-0.99-17.38
		C643.08,576.42,642.69,570.51,642.3,564.19z"/>
	<path class="st0" d="M952.3,557.69c1.28-0.11,2.22-0.27,3.16-0.27c14.03-0.02,28.07,0.02,42.1-0.04c1.96-0.01,3.42,0.6,4.85,1.91
		c8.43,7.8,16.92,15.55,25.41,23.29c1.12,1.02,1.85,2.03,1.84,3.7c-0.07,18.63-0.05,37.26-0.07,55.89c0,0.24-0.08,0.47-0.17,0.99
		c-0.69,0.52-1.53,1.2-2.41,1.8c-4.11,2.78-8.23,5.53-12.34,8.3c-0.99,0.67-1.94,1.39-3.05,2.19c4.33,20.45,8.64,40.76,12.99,61.31
		c-3.77,0.79-7.36,0.32-10.91,0.37c-3.61,0.05-7.23,0.2-11.03-0.16c-0.37-1.3-0.77-2.54-1.07-3.81
		c-3.41-14.47-6.81-28.94-10.22-43.41c-0.25-1.05-0.57-2.08-0.87-3.17c-2.18-0.81-4.1,0.35-6.08,0.59c-2.01,0.24-3.98,0.87-5.82,1.3
		c-0.74,1.51-0.48,2.86-0.48,4.17c-0.02,13.31-0.01,26.61-0.01,39.92c0,1.32,0,2.64,0,4.04c-0.61,0.21-1.05,0.49-1.48,0.49
		c-6.53,0.03-13.06,0.03-19.6,0.01c-0.35,0-0.69-0.17-1.14-0.28c-0.61-1.46-0.59-3.02-0.62-4.58c-0.14-8.95-0.27-17.9-0.45-26.85
		c-0.33-15.72-0.7-31.43-1.03-47.15c-0.17-7.98-0.25-15.96-0.42-23.94c-0.34-15.84-0.71-31.68-1.05-47.51
		C952.25,563.89,952.3,561,952.3,557.69z M980.25,591.75c-0.79,1.31-0.49,2.8-0.49,4.22c-0.03,11.97-0.02,23.93-0.01,35.9
		c0,1.09-0.06,2.18,0.04,3.26c0.06,0.65,0.37,1.28,0.58,1.98c0.82-0.15,1.42-0.22,1.99-0.36c6.21-1.54,12.42-3.08,18.62-4.66
		c0.66-0.17,1.27-0.56,1.93-0.86c-0.04-0.79-0.02-1.39-0.12-1.98c-1.9-11.93-3.8-23.85-5.74-35.78c-0.11-0.67-0.49-1.29-0.7-1.84
		C992.34,591.16,982.94,591.24,980.25,591.75z"/>
	<path class="st0" d="M758.01,712.56c-16.46,3.08-32.76,5.78-49.48,8.81c-0.47-0.61-1.04-1.39-1.66-2.12
		c-8.39-9.85-16.76-19.71-25.21-29.5c-1.43-1.66-2.08-3.29-1.99-5.54c0.51-12.68,0.83-25.37,1.28-38.05
		c0.59-16.67,1.24-33.34,1.84-50c0.13-3.5,0.23-7.01,0.26-10.51c0.01-1.29,0.43-2.32,1.25-3.29c5.26-6.16,10.52-12.32,15.73-18.52
		c0.95-1.13,2.03-1.64,3.45-1.57c0.6,0.03,1.21-0.01,1.81-0.01c13.42,0,26.84,0,40.26,0c4.68,0,3.81,0.01,6.04,3.35
		c1.82,2.71,3.51,5.51,5.34,8.2c0.86,1.26,1.29,2.56,1.17,4.07c-0.04,0.48,0,0.97,0,1.45c0,43.04,0,86.08,0,129.13
		C758.12,709.77,758.05,711.07,758.01,712.56z M704.36,594.52c-0.5,3.74-0.48,83.67,0.01,87.02c2.46,1.54,5.18,3.11,7.73,4.9
		c1.65,1.16,3.28,1.3,5.14,0.89c4.36-0.96,8.74-1.83,13.1-2.78c1.04-0.22,2.04-0.6,3.18-0.94c0-1.59,0.05-3.03-0.01-4.46
		c-0.36-9.42-0.78-18.83-1.1-28.25c-0.6-17.39-1.15-34.78-1.73-52.17c-0.06-1.93-0.16-3.86-0.3-5.79c-0.05-0.68-0.26-1.36-0.41-2.08
		c-1.14,0-2.11-0.14-3.03,0.02C719.47,592.18,711.9,592.96,704.36,594.52z"/>
	<path class="st0" d="M1218.43,566.38c1.47,0,2.67,0,3.87,0c14.15,0,28.29,0,42.44,0c0.73,0,1.46,0.06,2.17-0.01
		c1.21-0.12,2.07,0.47,2.89,1.24c1.58,1.49,3.14,3.01,4.78,4.44c0.99,0.87,1.45,1.87,1.42,3.17c-0.06,2.42-0.06,4.83-0.1,7.25
		c-0.13,9.07-0.25,18.13-0.4,27.2c-0.25,14.26-0.53,28.52-0.8,42.78c-0.21,11.36-0.42,22.72-0.65,34.08
		c-0.19,9.55-0.41,19.09-0.62,28.64c-0.01,0.47-0.09,0.95-0.15,1.51c-1.04,0.77-2.28,0.8-3.44,0.93
		c-5.28,0.59-10.57,1.11-15.86,1.68c-5.53,0.6-11.05,1.23-16.57,1.83c-4.91,0.53-9.83,1.03-14.83,1.56c-0.7-0.92-1.39-1.75-2-2.63
		c-5.97-8.51-11.88-17.06-17.93-25.52c-1.35-1.89-1.85-3.79-1.85-6.06c0.04-31.19,0.04-62.38-0.01-93.58c0-2.41,0.59-4.4,2.01-6.37
		c4.52-6.28,8.89-12.66,13.33-19C1216.82,568.54,1217.55,567.58,1218.43,566.38z M1225.44,591.84c0,1.6,0,3.04,0,4.48
		c0,26.25,0,52.49,0,78.74c0,0.85,0.04,1.69,0,2.54c-0.05,1.17,0.35,2.07,1.25,2.86c2.63,2.32,5.23,4.67,7.8,7.05
		c0.97,0.89,1.97,1.16,3.3,0.98c5.27-0.71,10.56-1.28,15.83-1.95c1.3-0.16,2.58-0.48,3.89-0.73c0.7-1.48,0.45-2.95,0.45-4.37
		c0.02-28.42,0.01-56.85,0.01-85.27c0-0.85,0.04-1.7-0.03-2.54c-0.06-0.68-0.25-1.35-0.37-1.96
		C1253.75,591.16,1228.73,591.23,1225.44,591.84z"/>
	<path class="st0" d="M1195.86,714.85c-7.72,1.1-15.18,1.42-22.74,2.34c-3.82-10.46-6.81-20.9-10.58-31.22
		c-1.06,0-2.02-0.09-2.96,0.01c-6.49,0.7-12.97,1.44-19.45,2.19c-2.21,0.26-2.48,0.5-3.08,2.86c-1.95,7.73-3.86,15.47-5.8,23.21
		c-0.2,0.81-0.47,1.61-0.75,2.57c-3.07,0.43-5.99-0.53-8.96-0.73c-2.88-0.2-5.74-0.72-8.43-1.07c-0.95-1.19-0.55-2.31-0.39-3.33
		c0.99-6.33,2.05-12.64,3.08-18.96c1.59-9.78,3.18-19.56,4.77-29.34c2.05-12.64,4.1-25.29,6.15-37.93
		c1.82-11.21,3.64-22.42,5.46-33.63c1.26-7.75,2.5-15.51,3.76-23.26c0.1-0.58,0.33-1.14,0.55-1.87c3.5-0.59,6.98-0.21,10.45-0.28
		c3.51-0.07,7.01-0.03,10.52-0.01c3.49,0.02,6.98-0.09,10.48,0.08c0.31,1.05,0.62,1.84,0.77,2.66c9.06,47.97,18.1,95.93,27.14,143.9
		C1195.93,713.48,1195.86,713.97,1195.86,714.85z M1162.4,650.84c-0.18-1.28-0.28-2.36-0.48-3.42c-2.5-13.05-5.01-26.11-7.52-39.16
		c-0.02-0.11-0.11-0.21-0.19-0.29c-0.08-0.09-0.18-0.16-0.4-0.34c-1.53-0.23-3.18-0.35-4.97,0.14c-0.16,1-0.38,1.92-0.46,2.86
		c-0.89,9.87-1.77,19.75-2.64,29.62c-0.26,2.89-0.51,5.78-0.72,8.67c-0.05,0.67,0.14,1.36,0.2,1.97
		C1148.69,651.4,1159.1,651.39,1162.4,650.84z"/>
	<path class="st0" d="M927.85,660.96c-4.15,0.47-8.24,0.16-12.32,0.22c-4.1,0.06-8.21,0.01-12.43,0.01
		c-0.23,0.73-0.55,1.27-0.55,1.82c-0.03,7.98-0.03,15.97-0.01,23.95c0,0.45,0.21,0.9,0.34,1.45c3.87,0.11,7.53-0.78,11.22-1.18
		c3.6-0.4,7.18-0.96,10.78-1.42c3.69-0.47,7.35-1.31,11.24-1.25c0.16,0.89,0.38,1.57,0.39,2.26c0.03,9.19,0.03,18.39,0.01,27.58
		c0,0.81-0.21,1.63-0.31,2.38c-3.2,0.49-53.18,0.49-56.55-0.01c-0.12-0.59-0.33-1.27-0.37-1.95c-0.07-1.08-0.04-2.18-0.04-3.26
		c0-48.51,0-97.02,0.01-145.53c0-1.67,0.09-3.35,0.14-5.16c7.14-1.22,14.16-0.94,21.12-1.38c7-0.44,14-0.9,21.01-1.09
		c7-0.19,13.98-1.13,21.15-0.79c0.19,0.6,0.47,1.14,0.51,1.7c0.68,10.13,1.33,20.27,1.98,30.41c0.02,0.35-0.12,0.7-0.18,1.04
		c-1.07,0.93-2.34,0.56-3.5,0.56c-11.13,0.03-22.26,0.01-33.39,0.02c-1.31,0-2.63,0.06-3.88,0.09c-0.96,1.8-0.72,3.53-0.75,5.18
		c-0.11,5.32-0.13,10.64-0.18,15.97c-0.05,4.48-0.1,8.95-0.13,13.43c-0.01,0.83,0.08,1.67,0.14,2.7c0.63,0.09,1.2,0.29,1.74,0.24
		c5.3-0.45,10.59-0.97,15.89-1.42c2.4-0.2,4.8-0.31,7.32-0.46c0.19,0.78,0.45,1.34,0.44,1.89c-0.14,10.16-0.31,20.31-0.49,30.47
		C928.18,659.9,927.99,660.35,927.85,660.96z"/>
	<path class="st0" d="M869.66,561.34c0.57,3.25,0.57,23.8,0.01,27.06c-1.15,0.66-2.5,0.43-3.79,0.43c-8.83,0.02-17.66,0-26.49,0.03
		c-1.31,0-2.67-0.26-4.07,0.6c-0.08,0.7-0.25,1.51-0.27,2.33c-0.19,9.55-0.37,19.1-0.52,28.65c-0.03,1.67-0.22,3.37,0.41,5.19
		c11.6,1.97,23.13,3.92,34.47,5.85c0.92,1.34,0.66,2.58,0.66,3.76c0.03,6.65,0.01,13.31,0.01,19.96c0,17.42,0,34.84,0,52.26
		c0,1.45,0,2.89,0,4.41c-0.91,0.58-1.69,1.15-2.52,1.6c-7,3.83-14.03,7.6-20.99,11.5c-1.82,1.02-3.55,1.21-5.53,0.83
		c-7.24-1.37-14.49-2.67-21.74-4c-3.55-0.65-7.09-1.33-10.56-1.98c-0.19-0.55-0.42-0.88-0.42-1.22c-0.04-8.1-0.06-16.21-0.06-24.31
		c0-0.71,0.14-1.42,0.24-2.38c0.92,0.15,1.73,0.18,2.48,0.41c6,1.87,11.98,3.77,17.98,5.66c1.14,0.36,2.3,0.67,3.62,1.06
		c4.68-3.39,9.36-6.79,13.88-10.07c0.67-2.49-0.97-26.28-1.4-31.22c-5.91-2.71-12.2-4.86-18.33-7.35
		c-6.03-2.45-12.16-4.66-17.86-7.07c-0.28-0.43-0.35-0.52-0.4-0.63c-0.05-0.11-0.1-0.23-0.1-0.35c-0.05-0.6-0.11-1.2-0.11-1.81
		c0.01-22.86,0.02-45.72,0.04-68.59c0-0.36,0.11-0.71,0.19-1.22c0.7-0.52,1.45-1.12,2.24-1.65c5.23-3.48,10.5-6.92,15.7-10.45
		c1.28-0.87,2.55-1.26,4.07-1.11c4.09,0.38,8.19,0.68,12.29,1.04c4.58,0.4,9.15,0.84,13.72,1.25c3.37,0.3,6.75,0.56,10.11,0.89
		C867.66,560.82,868.7,561.14,869.66,561.34z"/>
	<path class="st0" d="M1038.19,597.87c-2.58-11.57-5.1-22.88-7.6-34.19c-0.15-0.68-0.12-1.41-0.17-2.14
		c0.46-0.14,0.8-0.32,1.14-0.32c26.97-0.01,53.94,0,80.9,0.01c0.34,0,0.68,0.17,1.26,0.33c0.49,2.33,0.2,4.73,0.25,7.11
		c0.05,2.54,0.01,5.08,0.01,7.62c0,2.42,0.01,4.84,0,7.26c-0.01,2.41-0.06,4.81-0.08,7.02c-1.14,1.04-2.28,0.76-3.33,0.76
		c-7.01,0.03-14.03,0.01-21.04,0.02c-1.18,0-2.36,0.12-3.69,0.19c-0.12,0.93-0.26,1.62-0.29,2.31c-0.04,1.21-0.02,2.42-0.02,3.63
		c0,38.09,0,76.19,0,114.28c0,1.57,0,3.13,0,4.79c-0.56,0.22-0.98,0.53-1.41,0.53c-6.77,0.03-13.54,0.03-20.31,0.01
		c-0.33,0-0.67-0.19-1.12-0.33c-0.47-1.27-0.31-2.61-0.31-3.91c-0.02-7.86-0.01-15.72-0.01-23.58c0-27.81,0-55.63,0-83.44
		c0-1.44-0.06-2.88-0.09-4.37c-1.49-0.97-3.06-1.01-4.59-1.2C1051.31,599.47,1044.96,598.7,1038.19,597.87z"/>
	<path class="st0" d="M1178.91,526c0.55,4.92,0.42,14.17-0.22,16.74c-2.97-0.28-5.96-0.56-8.96-0.84
		c-4.32-0.41-8.65-0.78-12.96-1.24c-1.3-0.14-2.65-0.32-3.84-0.81c-7.14-2.95-14.29-3.07-21.52-0.42c-0.54,0.2-1.11,0.32-1.68,0.48
		c-0.61-2.74-0.75-11.72-0.29-17.16c2.76-2.7,6.24-4.29,9.95-5.44c3.39-1.05,6.86-1.29,10.38-0.95c1.74,0.17,3.2,0.77,4.32,2.26
		c1.38,1.83,3.06,3.43,4.42,5.26c1.14,1.54,2.51,2,4.36,1.95c4.1-0.1,8.21-0.04,12.31-0.02
		C1176.36,525.84,1177.54,525.94,1178.91,526z"/>
</g>
</svg>
